<svg xmlns="http://www.w3.org/2000/svg" viewBox="0 0 400 400" role="img" aria-label="Mistkruiper">
<title>Mistkruiper</title>
<defs>
<radialGradient id="bg" cx="50%" cy="45%" r="75%"><stop offset="0" stop-color="#efe3c6"/><stop offset="1" stop-color="#cbb98f"/></radialGradient>
<filter id="rough" x="-5%" y="-5%" width="110%" height="110%"><feTurbulence type="fractalNoise" baseFrequency="0.035" numOctaves="2" seed="4"/><feDisplacementMap in="SourceGraphic" scale="3.5"/></filter>
</defs>
<rect width="400" height="400" fill="url(#bg)"/>
<g filter="url(#rough)" stroke-linejoin="round" stroke-linecap="round">
<g stroke="#171210" stroke-width="2" opacity="0.5" fill="none"><path d="M58 330 L54 215 M72 330 L78 232 M336 330 L341 205 M350 330 L345 238 M322 330 L318 250"/></g>
<path d="M60 310 C110 220 170 350 225 265 S300 190 322 140" fill="none" stroke="#171210" stroke-width="32"/>
<path d="M60 310 C110 220 170 350 225 265 S300 190 322 140" fill="none" stroke="#7d786f" stroke-width="24"/>
<path d="M60 310 C110 220 170 350 225 265 S300 190 322 140" fill="none" stroke="#a9a498" stroke-width="7" stroke-dasharray="1 15" opacity="0.8"/>
<ellipse cx="332" cy="128" rx="26" ry="18" transform="rotate(-50 332 128)" fill="#7d786f" stroke="#171210" stroke-width="2.5"/>
<circle cx="335" cy="119" r="4" fill="#efe3c6"/><circle cx="345" cy="131" r="4" fill="#efe3c6"/>
<g stroke="#171210" stroke-width="2.5" fill="none"><path d="M120 262 Q108 285 118 300 M185 288 Q178 312 190 326 M250 232 Q262 250 252 268"/></g>
<g fill="#efe3c6" opacity="0.8"><ellipse cx="120" cy="300" rx="110" ry="16"/><ellipse cx="285" cy="322" rx="120" ry="14"/><ellipse cx="190" cy="348" rx="150" ry="12"/></g>

</g>
<rect x="10" y="10" width="380" height="380" fill="none" stroke="#8a6d3b" stroke-width="2"/>
<rect x="17" y="17" width="366" height="366" fill="none" stroke="#8a6d3b" stroke-width="0.8" opacity="0.7"/>
</svg>
