<svg xmlns="http://www.w3.org/2000/svg" viewBox="0 0 400 400" role="img" aria-label="Schaduwmarter">
<title>Schaduwmarter</title>
<defs>
<radialGradient id="bg" cx="50%" cy="45%" r="75%"><stop offset="0" stop-color="#efe3c6"/><stop offset="1" stop-color="#cbb98f"/></radialGradient>
<filter id="rough" x="-5%" y="-5%" width="110%" height="110%"><feTurbulence type="fractalNoise" baseFrequency="0.035" numOctaves="2" seed="4"/><feDisplacementMap in="SourceGraphic" scale="3.5"/></filter>
</defs>
<rect width="400" height="400" fill="url(#bg)"/>
<g filter="url(#rough)" stroke-linejoin="round" stroke-linecap="round">
<path d="M24 252 Q200 274 376 234" stroke="#171210" stroke-width="18" fill="none"/><path d="M24 252 Q200 274 376 234" stroke="#6b5330" stroke-width="12" fill="none"/>
<path d="M266 224 C334 222 356 162 332 96" stroke="#171210" stroke-width="26" fill="none"/><path d="M266 224 C334 222 356 162 332 96" stroke="#24201c" stroke-width="20" fill="none"/>
<path d="M112 244 C124 190 204 174 252 204 C288 224 278 246 252 250 L132 254 Z" fill="#24201c" stroke="#171210" stroke-width="3"/>
<path d="M140 252 L138 276 M176 254 L177 278 M232 252 L236 274 M258 248 L266 270" stroke="#24201c" stroke-width="11" fill="none"/>
<ellipse cx="108" cy="206" rx="31" ry="25" fill="#24201c" stroke="#171210" stroke-width="3"/>
<path d="M90 190 L86 162 L108 182 Z M118 184 L130 160 L134 192 Z" fill="#24201c" stroke="#171210" stroke-width="2.5"/>
<path d="M82 212 L62 220 L84 226 Z" fill="#24201c" stroke="#171210" stroke-width="2.5"/>
<circle cx="98" cy="200" r="7" fill="#efe3c6"/><circle cx="120" cy="200" r="7" fill="#efe3c6"/>
<circle cx="98" cy="200" r="2.8" fill="#171210"/><circle cx="120" cy="200" r="2.8" fill="#171210"/>
<path d="M120 196 Q200 180 252 206" stroke="#8a6d3b" stroke-width="1.2" fill="none" stroke-dasharray="3 5" opacity="0.8"/>
<circle cx="310" cy="250" r="7" fill="none" stroke="#8a6d3b" stroke-width="3"/><path d="M317 250 H340 M334 250 V258 M340 250 V256" stroke="#8a6d3b" stroke-width="3" fill="none"/>
<path d="M96 346 Q160 306 238 332 Q178 352 96 346 Z" fill="#171210" stroke="#171210" stroke-width="2"/><path d="M90 348 L246 330" stroke="#171210" stroke-width="2.5"/>

</g>
<rect x="10" y="10" width="380" height="380" fill="none" stroke="#8a6d3b" stroke-width="2"/>
<rect x="17" y="17" width="366" height="366" fill="none" stroke="#8a6d3b" stroke-width="0.8" opacity="0.7"/>
</svg>
